<svg width="53" height="54" viewBox="0 0 53 54" fill="none" xmlns="http://www.w3.org/2000/svg">
<path d="M1.20274 47.4922C-0.154764 48.8683 -0.13968 51.0844 1.23643 52.4419C2.61253 53.7993 4.82856 53.7843 6.18606 52.4082L1.20274 47.4922ZM52.0804 4.42508C52.0673 2.49214 50.4896 0.935837 48.5567 0.948991L17.0574 1.1634C15.1245 1.17656 13.5682 2.75419 13.5813 4.68714C13.5945 6.62009 15.1721 8.17639 17.1051 8.16323L45.1044 7.97264L45.295 35.9719C45.3082 37.9049 46.8858 39.4612 48.8187 39.448C50.7517 39.4349 52.308 37.8572 52.2948 35.9243L52.0804 4.42508ZM6.18606 52.4082L51.0722 6.90687L46.0888 1.99094L1.20274 47.4922L6.18606 52.4082Z" fill="black"/>
</svg>
