<svg width="20" height="16" viewBox="0 0 20 16" fill="none" xmlns="http://www.w3.org/2000/svg">
<path fill-rule="evenodd" clip-rule="evenodd" d="M19.8812 7.99995C19.8812 7.47183 19.453 7.0437 18.9249 7.0437H1.0749C0.546779 7.0437 0.118652 7.47183 0.118652 7.99995C0.118652 8.52807 0.546779 8.9562 1.0749 8.9562H18.9249C19.453 8.9562 19.8812 8.52807 19.8812 7.99995Z" fill="white"/>
<path fill-rule="evenodd" clip-rule="evenodd" d="M19.8812 1.62495C19.8812 1.09683 19.453 0.668701 18.9249 0.668701H1.0749C0.546779 0.668701 0.118652 1.09683 0.118652 1.62495C0.118652 2.15307 0.546779 2.5812 1.0749 2.5812H18.9249C19.453 2.5812 19.8812 2.15307 19.8812 1.62495Z" fill="white"/>
<path fill-rule="evenodd" clip-rule="evenodd" d="M19.8812 14.375C19.8812 13.8468 19.453 13.4187 18.9249 13.4187H1.0749C0.546779 13.4187 0.118652 13.8468 0.118652 14.375C0.118652 14.9031 0.546779 15.3312 1.0749 15.3312H18.9249C19.453 15.3312 19.8812 14.9031 19.8812 14.375Z" fill="white"/>
</svg>
