<svg width="21" height="15" viewBox="0 0 21 15" fill="none" xmlns="http://www.w3.org/2000/svg">
<path d="M11.2884 14.3747L7.22617 14.2988C5.91092 14.2723 4.5924 14.3251 3.30294 14.051C1.34138 13.6415 1.20241 11.6336 1.057 9.94939C0.856641 7.58155 0.934207 5.17074 1.31232 2.82266C1.52577 1.50514 2.3658 0.718973 3.66488 0.633423C8.05023 0.322948 12.4647 0.359743 16.8404 0.50459C17.3025 0.517869 17.7678 0.590445 18.2235 0.673056C20.4728 1.07597 20.5276 3.35137 20.6734 5.26683C20.8189 7.20205 20.7575 9.14721 20.4795 11.0693C20.2566 12.6607 19.8299 13.9952 18.0296 14.124C15.7738 14.2925 13.5698 14.4281 11.3077 14.3849C11.3078 14.3747 11.2948 14.3747 11.2884 14.3747ZM8.90019 10.3457C10.6001 9.34831 12.2676 8.36752 13.9577 7.3768C12.2547 6.37939 10.5904 5.3986 8.90019 4.40788V10.3457Z" fill="white"/>
</svg>
