<svg width="730" height="54" viewBox="0 0 730 54" fill="none" xmlns="http://www.w3.org/2000/svg">
<path d="M35.016 2.528C34.8 2.528 34.656 2.528 34.512 2.528H0.960001V4.4C0.960001 6.848 2.976 8.864 5.424 8.864H35.016C39.336 8.864 42.864 12.392 42.864 16.712C42.864 21.104 39.336 24.632 35.016 24.632H0.960001V53H4.272C6.072 53 7.512 51.56 7.512 49.76V30.968H35.016C42.864 30.968 49.2 24.56 49.2 16.712C49.2 8.936 42.864 2.528 35.016 2.528ZM112.359 30.608C118.767 29.24 123.591 23.552 123.591 16.712C123.591 8.936 117.255 2.528 109.407 2.528C109.191 2.528 109.047 2.528 108.903 2.528H75.3506V5.552C75.3506 7.352 76.8626 8.864 78.6626 8.864H109.407C113.727 8.864 117.255 12.392 117.255 16.712C117.255 21.104 113.727 24.632 109.407 24.632H75.3506V53H78.5906C80.4626 53 81.9026 51.56 81.9026 49.688V30.968H105.303L115.311 50.624C116.031 52.064 117.615 53 119.271 53C120.855 53 122.223 53 123.807 53L112.359 30.608ZM172.344 2.528C158.376 2.528 147.072 13.832 147.072 27.8C147.072 41.768 158.376 53.072 172.344 53.072C186.312 53.072 197.616 41.768 197.616 27.8C197.616 13.832 186.312 2.528 172.344 2.528ZM172.344 46.736C161.904 46.736 153.408 38.24 153.408 27.8C153.408 17.36 161.904 8.864 172.344 8.864C182.784 8.864 191.28 17.36 191.28 27.8C191.28 38.24 182.784 46.736 172.344 46.736ZM236.407 21.464H233.167V49.76C233.167 51.56 234.607 53 236.407 53H239.719V24.776C239.719 22.976 238.207 21.464 236.407 21.464ZM255.919 2.528H213.655V5.552C213.655 7.424 215.167 8.864 216.967 8.864H259.159V5.84C259.159 4.04 257.719 2.528 255.919 2.528ZM307.625 2.528C293.657 2.528 282.353 13.832 282.353 27.8C282.353 41.768 293.657 53.072 307.625 53.072C321.593 53.072 332.897 41.768 332.897 27.8C332.897 13.832 321.593 2.528 307.625 2.528ZM307.625 46.736C297.185 46.736 288.689 38.24 288.689 27.8C288.689 17.36 297.185 8.864 307.625 8.864C318.065 8.864 326.561 17.36 326.561 27.8C326.561 38.24 318.065 46.736 307.625 46.736ZM381.38 8.864C383.396 8.864 393.98 8.864 399.956 8.864C401.756 8.864 403.268 7.424 403.268 5.552V2.528C381.092 2.528 381.38 2.528 381.38 2.528C367.412 2.528 356.108 13.832 356.108 27.8C356.108 41.768 367.412 53.072 381.38 53.072C381.38 53.072 381.092 53 403.268 53V50.048C403.268 48.176 401.756 46.736 399.956 46.736C394.196 46.736 383.252 46.736 381.38 46.736C370.94 46.736 362.444 38.24 362.444 27.8C362.444 17.36 370.94 8.864 381.38 8.864ZM451.625 2.528C437.657 2.528 426.353 13.832 426.353 27.8C426.353 41.768 437.657 53.072 451.625 53.072C465.593 53.072 476.897 41.768 476.897 27.8C476.897 13.832 465.593 2.528 451.625 2.528ZM451.625 46.736C441.185 46.736 432.689 38.24 432.689 27.8C432.689 17.36 441.185 8.864 451.625 8.864C462.065 8.864 470.561 17.36 470.561 27.8C470.561 38.24 462.065 46.736 451.625 46.736ZM535.46 46.736H525.38C514.94 46.736 506.66 38.24 506.66 27.8V5.84C506.66 4.04 505.22 2.528 503.42 2.528H500.108V27.8C500.108 41.624 511.268 52.856 525.092 53H538.7V50.048C538.7 48.176 537.26 46.736 535.46 46.736ZM623.659 53H589.675V47.744L603.139 34.136C605.731 31.544 607.915 29.24 609.691 27.224C611.467 25.208 612.811 23.24 613.723 21.32C614.635 19.352 615.091 17.216 615.091 14.912C615.091 12.08 614.251 9.944 612.571 8.504C610.891 7.016 608.707 6.272 606.019 6.272C603.523 6.272 601.315 6.704 599.395 7.568C597.523 8.432 595.603 9.632 593.635 11.168L590.251 6.92C591.595 5.768 593.059 4.736 594.643 3.824C596.275 2.912 598.027 2.192 599.899 1.664C601.819 1.136 603.859 0.871997 606.019 0.871997C609.235 0.871997 611.995 1.424 614.299 2.528C616.603 3.632 618.379 5.216 619.627 7.28C620.923 9.296 621.571 11.72 621.571 14.552C621.571 16.568 621.259 18.488 620.635 20.312C620.011 22.088 619.123 23.84 617.971 25.568C616.819 27.296 615.427 29.048 613.795 30.824C612.163 32.6 610.363 34.448 608.395 36.368L597.667 46.952V47.24H623.659V53ZM667.166 41.336H659.678V53H653.558V41.336H628.934V35.936L653.126 1.304H659.678V35.648H667.166V41.336ZM653.558 19.448C653.558 18.2 653.558 17.072 653.558 16.064C653.606 15.008 653.654 14.024 653.702 13.112C653.75 12.2 653.774 11.336 653.774 10.52C653.822 9.656 653.87 8.84 653.918 8.072H653.63C653.246 8.984 652.766 9.968 652.19 11.024C651.614 12.08 651.062 12.968 650.534 13.688L635.126 35.648H653.558V19.448ZM726.153 46.736H681.585V53H729.465V50.048C729.465 48.176 727.953 46.736 726.153 46.736ZM728.745 5.552V2.528H681.585V8.864H725.433C727.233 8.864 728.745 7.424 728.745 5.552ZM724.281 27.656V24.632H681.585V30.968H720.969C722.841 30.968 724.281 29.456 724.281 27.656Z" fill="white"/>
</svg>
