<svg width="338" height="365" viewBox="0 0 338 365" fill="none" xmlns="http://www.w3.org/2000/svg">
<path opacity="0.6" d="M158.234 13.0896C172.982 12.1777 188.605 9.63654 204.276 7.07736L204.599 7.02474C220.174 4.48122 235.793 1.93054 250.698 0.935426C280.723 -1.06909 307.691 3.24932 325.455 26.497C343.162 49.6714 338.885 76.384 328.354 104.609C324.446 115.084 319.689 125.735 314.895 136.47C313.232 140.195 311.563 143.93 309.925 147.671C303.57 162.18 297.664 176.768 294.233 191.138C290.886 205.153 289.391 220.1 288.268 235.091C287.993 238.766 287.74 242.444 287.488 246.111C286.71 257.413 285.94 268.618 284.541 279.375C280.834 307.867 272.738 333.024 248.607 348.145C223.116 364.119 192.929 367.357 162.879 362.301C132.828 357.246 102.945 343.901 78.1123 326.754C57.0249 312.194 45.7383 290.952 38.3138 267.014C33.4891 251.458 30.3088 234.821 27.1237 218.158C25.4002 209.143 23.6754 200.119 21.6878 191.256C19.3889 181.004 16.4479 170.528 13.4966 160.015C12.8459 157.697 12.1947 155.378 11.5498 153.058C7.97745 140.211 4.59573 127.364 2.53584 114.816C-1.58412 89.719 -0.402168 65.9005 15.0485 45.7389C30.6444 25.3879 53.4805 18.0011 78.9398 15.322C91.6692 13.9825 105.032 13.822 118.45 13.7983C120.199 13.7952 121.95 13.7944 123.699 13.7937C135.364 13.7885 147.013 13.7834 158.234 13.0896Z" fill="white" fill-opacity="0.2" stroke="url(#paint0_linear_62_57)"/>
<defs>
<linearGradient id="paint0_linear_62_57" x1="169" y1="0" x2="169" y2="365" gradientUnits="userSpaceOnUse">
<stop stop-color="white"/>
<stop offset="0.473078" stop-color="#E18CA0" stop-opacity="0.74"/>
<stop offset="1" stop-color="#FFDFE7" stop-opacity="0.08"/>
</linearGradient>
</defs>
</svg>
